<?xml version="1.0" standalone="no"?><!DOCTYPE svg PUBLIC "-//W3C//DTD SVG 1.1//EN" "http://www.w3.org/Graphics/SVG/1.1/DTD/svg11.dtd"><svg t="1631775094571" class="icon" viewBox="0 0 1024 1024" version="1.1" xmlns="http://www.w3.org/2000/svg" p-id="4388" xmlns:xlink="http://www.w3.org/1999/xlink" width="40" height="40"><defs><style type="text/css"></style></defs><path d="M841.6 222.2c-6.8-3.6-13.4-7.4-20-11.6-18.8-12.4-35.8-27-51.2-43.4-38.2-43.6-52.4-88-57.6-119h0.2c-4.4-25.8-2.6-42.4-2.2-42.4h-173.8v672.4c0 9 0 18-0.4 26.8 0 1-0.2 2.2-0.2 3.2 0 0.4 0 1-0.2 1.4v0.4c-0.4 6-1.2 12-2.4 17.8-1.2 6-2.8 11.8-4.6 17.4-1.8 5.8-4.2 11.4-6.8 16.8-2.6 5.4-5.4 10.8-8.8 15.8-3.2 5-6.8 10-10.6 14.6s-8 9-12.2 13.2c-4.4 4.2-9 8-13.8 11.6-4.8 3.6-9.8 6.8-15.2 9.8-11 6.2-22.6 11-34.8 14.2-12.2 3.2-24.6 4.8-37.2 4.8-81 0-146.6-66-146.6-147.6s65.6-147.6 146.6-147.6c15.4 0 30.4 2.4 45.2 7.2l0.2-177c-11-1.4-22.2-2.2-33.2-2.6-11.2-0.2-22.2 0-33.4 0.8-11 0.8-22.2 2.4-33 4.4-11 2-21.8 4.6-32.4 7.6-10.6 3.2-21.2 6.8-31.4 11s-20.4 9-30.2 14.2-19.4 11-28.6 17.2-18 13-26.6 20c-15 13-28.8 27.2-41.2 42.6-12.6 15.4-23.6 31.8-33.2 49.2-7.4 12.6-35 63.6-38.4 146-2.2 46.8 12 95.4 18.6 115.4v0.4c4.2 11.8 20.6 52.2 47.2 86.2 21.6 27.4 46.8 51 75.4 71v-0.4l0.4 0.4c84.2 57.2 177.6 53.4 177.6 53.4 16.2-0.6 70.2 0 131.8-29.2 68.2-32.2 107-80.4 107-80.4 12.4-14.4 23.4-29.6 33.2-46 9.8-16.2 18.2-33.2 25-51 15.8-41.4 21-91 21-110.8V344.2c2.2 1.2 30.2 19.8 30.2 19.8s40.4 26 103.6 42.8c45.4 12 106.4 14.6 106.4 14.6v-172.6c-21.6 2.4-65-4.4-109.4-26.6z" p-id="4389" fill="#ffffff"></path></svg>