<?xml version="1.0" standalone="no"?><!DOCTYPE svg PUBLIC "-//W3C//DTD SVG 1.1//EN" "http://www.w3.org/Graphics/SVG/1.1/DTD/svg11.dtd"><svg t="1631775953260" class="icon" viewBox="0 0 1024 1024" version="1.1" xmlns="http://www.w3.org/2000/svg" p-id="4747" xmlns:xlink="http://www.w3.org/1999/xlink" width="40" height="40"><defs><style type="text/css"></style></defs><path d="M512 115.456c-219.004018 0-396.544 177.539982-396.544 396.542862 0 219.005156 177.539982 396.545138 396.544 396.545138 219.005156 0 396.544-177.539982 396.544-396.544 0-219.005156-177.538844-396.544-396.544-396.544z m260.551111 345.893547c-51.2 0.572302-98.986667-14.900338-141.084444-43.554134v201.151147c0 89.402027-61.031538 166.197476-147.566365 186.253084-118.055822 26.933476-217.911751-58.455609-230.519466-160.461937-13.181156-102.008604 51.817813-191.411769 151.534933-211.470791 19.484444-4.010667 47.922062-4.010667 63.850951-0.572303v107.738454c-4.551111-1.14688-8.906524-2.291484-13.490631-2.864925-38.968889-6.877867-76.662329 12.606578-92.136107 48.140516-15.471502 35.531662-5.093831 76.793173 26.428302 100.861724 26.361173 20.631324 55.622542 23.492836 85.420943 9.740516 29.800676-13.180018 45.681778-37.246293 49.120142-69.913031 0.57344-4.584107 0.408462-9.742791 0.408462-14.902614V224.664462c0-10.887396 0.362951-10.763378 11.251485-10.763378h85.39136c6.302151 0 8.597049 1.083164 9.170488 8.534472 4.582969 66.47808 55.066169 123.182649 119.823929 131.777422 6.877867 1.145742 14.436124 1.687324 22.400569 2.260764v104.874667H772.551111z" p-id="4748" fill="#2d0c21"></path></svg>