<svg id="图层_1" data-name="图层 1" xmlns="http://www.w3.org/2000/svg" viewBox="0 0 40 320"><defs><linearGradient id="未命名的渐变_2" x1="-583.14" y1="180.06" x2="-564.86" y2="153.94" gradientTransform="translate(594 133)" gradientUnits="userSpaceOnUse"><stop offset="0" stop-color="#ffb900"/><stop offset="1" stop-color="#9100eb"/></linearGradient><style>.cls-2{fill:#fff}.cls-4{fill:#c14038}</style></defs><circle cx="20" cy="220" r="15.94" fill="#d9381e"/><path class="cls-2" d="M27.79 218.63h-2.45v-2.45a.34.34 0 00-.34-.34h-.7a.34.34 0 00-.34.34v2.45h-2.45a.34.34 0 00-.34.34v.7a.34.34 0 00.34.34H24v2.45a.34.34 0 00.34.34H25a.34.34 0 00.34-.34V220h2.45a.34.34 0 00.34-.34V219a.34.34 0 00-.34-.37z"/><path class="cls-2" d="M19.55 220.78a2.87 2.87 0 01-1-1.06c0-.3 0-.44.7-1a3.21 3.21 0 001.35-2.52 3.35 3.35 0 00-.71-2.15h.35a.34.34 0 00.2-.06l1-.7a.34.34 0 00-.2-.61H16.9a4.37 4.37 0 00-1.42.25 3.71 3.71 0 00-2.67 3.26 3.46 3.46 0 003.53 3.47 1.83 1.83 0 00-.06.46 1.7 1.7 0 00.23.86h-.06a4.71 4.71 0 00-4.32 2.35 2.57 2.57 0 00-.26 1.1 2.07 2.07 0 00.27 1 3.84 3.84 0 002.5 1.62 8.1 8.1 0 002 .24 6.34 6.34 0 001.76-.24 3.51 3.51 0 002.81-3.21 3.34 3.34 0 00-1.66-3.06zM14.11 224c0-1 1.29-1.9 2.76-1.9a3.29 3.29 0 01.92.14l.29.2c.68.46 1.13.77 1.25 1.26a1.59 1.59 0 010 .37c0 1.26-.94 1.9-2.8 1.9a2.26 2.26 0 01-2.42-1.97zm1.34-9.58a1.13 1.13 0 01.87-.4 2.55 2.55 0 012 2.37 2.3 2.3 0 01-.42 1.8 1.13 1.13 0 01-.88.4c-.93 0-1.86-1.13-2-2.41a2.23 2.23 0 01.42-1.79z"/><circle cx="20" cy="60" r="15.94" fill="#48b9eb"/><path class="cls-2" d="M16.54 68a10.8 10.8 0 0010.88-10.91v-.49a7.78 7.78 0 001.91-2 7.63 7.63 0 01-2.2.6 3.84 3.84 0 001.67-2.1 7.66 7.66 0 01-2.43.93 3.83 3.83 0 00-6.51 3.49 10.86 10.86 0 01-7.88-4 3.84 3.84 0 001.18 5.1 3.79 3.79 0 01-1.73-.48 3.84 3.84 0 003.07 3.75 3.82 3.82 0 01-1.73.07 3.83 3.83 0 003.57 2.65 7.67 7.67 0 01-4.75 1.64 7.78 7.78 0 01-.91-.06A10.82 10.82 0 0016.54 68"/><circle class="cls-4" cx="20" cy="180" r="15.94"/><path class="cls-2" d="M18.21 169.71H17l-.79 3-.82-3h-1.17l.74 2.15a18.25 18.25 0 01.7 2.44v3.12h1.16v-3.12zm3.09 5.85v-2a2.25 2.25 0 00-.32-1.35 1.41 1.41 0 00-1.22-.59 1.44 1.44 0 00-1.22.59 2.25 2.25 0 00-.32 1.35v2a2.27 2.27 0 00.32 1.35 1.55 1.55 0 002.43 0 2.32 2.32 0 00.33-1.35zm-1 .19c0 .53-.16.8-.5.8s-.5-.26-.5-.8v-2.42c0-.53.16-.8.5-.8s.5.26.5.8zm4.89 1.66v-5.74h-1v4.39c-.23.32-.45.49-.66.49s-.22-.08-.24-.24a2.1 2.1 0 010-.4v-4.23h-1v4.54a2.88 2.88 0 00.1.86.64.64 0 00.67.42 1.67 1.67 0 001.19-.7v.62h1zM21.89 183.21a.74.74 0 00-.51.25v3.46a.74.74 0 00.51.25c.29 0 .45-.25.45-.77V184c-.01-.53-.16-.79-.45-.79zM25.71 183.21c-.34 0-.51.26-.51.79v.53h1V184c.02-.53-.2-.79-.49-.79z"/><path class="cls-2" d="M28.22 180.32a2.16 2.16 0 00-1.85-1.68 58 58 0 00-6.38-.23 57.84 57.84 0 00-6.38.23 2.15 2.15 0 00-1.85 1.68 27.17 27.17 0 000 8.06 2.16 2.16 0 001.84 1.68 58 58 0 006.39.23 58 58 0 006.39-.23 2.16 2.16 0 001.85-1.68 18.05 18.05 0 00.3-4 18.47 18.47 0 00-.31-4.06zm-11.89 1.16H15.1V188h-1.15v-6.55h-1.2v-1.05h3.59zm3.12 6.52h-1v-.62a1.65 1.65 0 01-1.18.7.63.63 0 01-.67-.42 2.86 2.86 0 01-.09-.84v-4.5h1V186.91c0 .03.1.24.24.24s.42-.16.65-.48v-4.34h1zm3.92-1.71a4.67 4.67 0 01-.1 1.14.81.81 0 01-.83.64 1.4 1.4 0 01-1.06-.63v.56h-1v-7.6h1v2.49a1.39 1.39 0 011.06-.62.82.82 0 01.83.64 4.55 4.55 0 01.1 1.14zm3.88-.94h-2.06v1c0 .53.17.79.53.79a.45.45 0 00.46-.41v-.7h1V186.85a1.51 1.51 0 01-.24.62 1.43 1.43 0 01-1.25.62 1.48 1.48 0 01-1.25-.58 2.19 2.19 0 01-.33-1.33v-2a2.21 2.21 0 01.31-1.34 1.47 1.47 0 011.24-.58 1.44 1.44 0 011.22.58 2.26 2.26 0 01.32 1.34v1.17z"/><circle class="cls-4" cx="20" cy="100" r="15.94"/><path class="cls-2" d="M18.83 102.86l-.39 1.54a12.42 12.42 0 01-.8 2.52 12.81 12.81 0 01-1.42 2.23.28.28 0 01-.21.1s-.1-.12-.11-.18a11.29 11.29 0 010-3.7c.13-.69.32-1.37.48-2.06l.9-3.81a.61.61 0 000-.31 3.94 3.94 0 01.09-3.13 1.93 1.93 0 011.35-1.12 1.4 1.4 0 011.76 1.35 4.37 4.37 0 01-.21 1.47c-.24.84-.51 1.68-.72 2.53a1.65 1.65 0 001.93 2 2.77 2.77 0 002-1.31 6.85 6.85 0 001.08-3.15 6.41 6.41 0 000-2.09 3.59 3.59 0 00-2.57-2.88 5.44 5.44 0 00-4.77.59A4.81 4.81 0 0015 97a3.64 3.64 0 00.19 2 4.61 4.61 0 00.49.8.61.61 0 01.13.56c-.08.27-.14.55-.21.82a.38.38 0 01-.6.28 3.22 3.22 0 01-1.79-2 6 6 0 01.79-5.63 7 7 0 014.65-2.9 8.25 8.25 0 012.67-.11A6.36 6.36 0 0126.85 95a6 6 0 01.3 2.67 9 9 0 01-.65 2.82 5.72 5.72 0 01-3.09 3.29 4.2 4.2 0 01-3.35.1 3.12 3.12 0 01-1.23-1.02z"/><circle cx="20" cy="20" r="15.94" fill="#3e5a9b"/><path class="cls-2" d="M24 21l.48-3.13h-3v-2a1.57 1.57 0 011.77-1.69h1.37v-2.69a16.66 16.66 0 00-2.43-.21c-2.48 0-4.09 1.5-4.09 4.22v2.39h-2.73V21h2.75v7.57a11 11 0 003.39 0V21z"/><circle cx="20" cy="140" r="15.94" fill="#2c78a9"/><path class="cls-2" d="M20.89 138.56a3.82 3.82 0 012.11-1.45 5 5 0 013 .2 3 3 0 011.71 1.84 6.73 6.73 0 01.39 2.23v6.31c0 .3-.06.43-.4.42h-2.67c-.34 0-.4-.13-.39-.42v-5.39a4.3 4.3 0 00-.13-1.11 1.39 1.39 0 00-1.29-1.19c-1-.06-1.69.29-2 1a4.41 4.41 0 00-.23 1.49v5.11c0 .35-.1.47-.45.46h-2.59c-.32 0-.41-.12-.41-.42v-10c0-.36.1-.5.48-.48h2.44c.32 0 .43.11.41.42s.02.59.02.98zM15.53 142.68v5c0 .33-.1.45-.43.44h-2.63c-.31 0-.39-.13-.38-.41v-10c0-.38.13-.51.51-.5h2.55c.3 0 .39.1.39.39-.01 1.7-.01 3.4-.01 5.08zM11.85 133.84a2 2 0 011.92-2 2 2 0 012.06 2 2 2 0 01-2 2 2 2 0 01-1.98-2z"/><circle cx="20" cy="300" r="15.94" fill="url(#未命名的渐变_2)"/><path class="cls-2" d="M24.57 310h-9.14a5.4 5.4 0 01-5.4-5.4v-9.13a5.4 5.4 0 015.4-5.4h9.13a5.4 5.4 0 015.4 5.4v9.13a5.4 5.4 0 01-5.39 5.4zm-9.14-18.3a3.74 3.74 0 00-3.74 3.74v9.13a3.74 3.74 0 003.74 3.74h9.13a3.74 3.74 0 003.74-3.74v-9.13a3.74 3.74 0 00-3.74-3.74z"/><path class="cls-2" d="M20 305a5 5 0 115-5 5 5 0 01-5 5zm0-8.3a3.32 3.32 0 103.32 3.3 3.32 3.32 0 00-3.32-3.32z"/><circle class="cls-2" cx="25.29" cy="294.71" r="1.14"/><circle cx="20" cy="260" r="15.94" fill="#538fd3"/><path class="cls-2" d="M10.32 253.75h2.45a.71.71 0 01.66.48 25.83 25.83 0 001.79 4.22c1.07 1.76 1.76 2.42 2.21 2.35s.31-1.27.31-2.21a7.84 7.84 0 00-.34-3.25l-.69-1a.34.34 0 01.27-.55h3.93a.69.69 0 01.69.69v5s.17.9 1.14 0a17.16 17.16 0 002.87-4.42l.34-.83a.68.68 0 01.62-.42h2.58a.69.69 0 01.66.93l-.27.72a26 26 0 01-1.9 3.18c-1 1.35-1.17 1.67-1 2s2.62 2.66 3.25 3.77c.17.31.31.58.45.83a.72.72 0 01-.65 1h-2.93a.67.67 0 01-.58-.34l-.27-.45a18.08 18.08 0 00-2.83-2.72C22 262.11 22 263 22 263v1.83a1.38 1.38 0 01-1.36 1.41h-.72s-3.8 0-6.83-4.52a21.12 21.12 0 01-3.45-7.12.71.71 0 01.54-.83z" id="Layer_11" data-name="Layer 11"/></svg>