<?xml version="1.0" standalone="no"?><!DOCTYPE svg PUBLIC "-//W3C//DTD SVG 1.1//EN" "http://www.w3.org/Graphics/SVG/1.1/DTD/svg11.dtd"><svg t="1631776122023" class="icon" viewBox="0 0 1024 1024" version="1.1" xmlns="http://www.w3.org/2000/svg" p-id="5309" xmlns:xlink="http://www.w3.org/1999/xlink" width="40" height="40"><defs><style type="text/css"></style></defs><path d="M867.2 413.866667c-72.874667 0-143.744-23.893333-202.026667-68.138667v308.48c0 157.525333-120.234667 285.098667-268.586666 285.098667S128 811.733333 128 654.208 248.234667 369.066667 396.586667 369.066667c14.848 0 29.226667 1.28 43.264 3.754666v163.413334a114.176 114.176 0 0 0-42.154667-8.106667c-66.176 0-119.893333 56.96-119.893333 127.274667 0 70.186667 53.717333 127.189333 119.893333 127.189333 66.133333 0 119.808-57.002667 119.808-127.189333V42.666667h149.802667c0 117.76 89.984 213.205333 200.96 213.205333v157.866667l-1.066667 0.085333" fill="#03FBFF" p-id="5310"></path><path d="M894.976 455.850667a334.208 334.208 0 0 1-202.069333-68.096v308.48C692.906667 853.76 572.672 981.333333 424.32 981.333333c-148.309333 0-268.544-127.573333-268.544-285.098666s120.234667-285.098667 268.544-285.098667c14.848 0 29.269333 1.28 43.306667 3.754667v163.413333a114.218667 114.218667 0 0 0-42.154667-8.106667c-66.176 0-119.893333 56.96-119.893333 127.274667 0 70.229333 53.717333 127.232 119.893333 127.232 66.133333 0 119.808-57.002667 119.808-127.232V84.693333h149.802667c0 117.76 89.984 213.205333 200.96 213.205334v157.866666l-1.066667 0.085334" fill="#FD1753" p-id="5311"></path></svg>