<svg id="图层_1" data-name="图层 1" xmlns="http://www.w3.org/2000/svg" viewBox="0 0 40 320"><defs><style>.cls-1{fill:#bcbbbb}</style></defs><path class="cls-1" d="M18.29 104.08l-.56 2.18a17.59 17.59 0 01-1.13 3.56 18.14 18.14 0 01-2 3.16.39.39 0 01-.29.14c-.06 0-.14-.16-.15-.26a16 16 0 010-5.24c.19-1 .45-1.94.68-2.91q.65-2.7 1.27-5.4a.86.86 0 000-.44 5.58 5.58 0 01.13-4.43 2.73 2.73 0 011.91-1.59 2 2 0 012.5 1.92 6.19 6.19 0 01-.29 2.08c-.33 1.19-.72 2.37-1 3.58a2.34 2.34 0 002.74 2.85 3.92 3.92 0 002.68-1.9 9.7 9.7 0 001.53-4.46 9.08 9.08 0 000-3 5.08 5.08 0 00-3.64-4.08 7.71 7.71 0 00-6.72.84 6.8 6.8 0 00-3.09 5 5.15 5.15 0 00.27 2.84 6.53 6.53 0 00.69 1.13.86.86 0 01.18.8c-.11.38-.2.77-.3 1.16a.54.54 0 01-.84.4 4.56 4.56 0 01-2.54-2.88 8.51 8.51 0 011.2-7.9 10 10 0 016.59-4.11A11.68 11.68 0 0121.9 87a9 9 0 017.79 5.89 8.45 8.45 0 01.42 3.78 12.77 12.77 0 01-.92 4 8.09 8.09 0 01-4.42 4.74 6 6 0 01-4.74.13 4.42 4.42 0 01-1.74-1.46zM21.26 138a5.37 5.37 0 013-2 7 7 0 014.24.28 4.16 4.16 0 012.4 2.59 9.46 9.46 0 01.55 3.13v8.87c0 .42-.09.6-.56.59h-3.76c-.47 0-.56-.18-.55-.6v-7.58a6 6 0 00-.19-1.55 2 2 0 00-1.87-1.64c-1.45-.08-2.38.4-2.75 1.45a6.2 6.2 0 00-.33 2.1v7.18c0 .49-.14.66-.64.64h-3.65c-.45 0-.58-.17-.58-.59v-14c0-.51.15-.7.67-.68h3.42c.45 0 .61.16.58.59s.02.64.02 1.22zM13.73 143.76v7c0 .46-.14.63-.61.62h-3.7c-.44 0-.54-.18-.54-.57v-14c0-.54.18-.72.72-.71h3.59c.42 0 .55.13.54.55-.01 2.35 0 4.74 0 7.11zM8.55 131.33a2.8 2.8 0 012.7-2.75 2.75 2.75 0 012.9 2.59v.24a2.83 2.83 0 01-2.75 2.76 2.79 2.79 0 01-2.85-2.73zM17.76 167.09H16.3l-1 3.79-1-3.79h-1.54c.3.89.62 1.8.93 2.69a22.9 22.9 0 01.88 3.06v3.91H16v-3.91zm3.88 7.34v-2.53a2.83 2.83 0 00-.4-1.7 1.77 1.77 0 00-1.53-.74 1.8 1.8 0 00-1.53.74 2.83 2.83 0 00-.4 1.7v2.53a2.85 2.85 0 00.4 1.7 2 2 0 002.82.18l.18-.18a2.91 2.91 0 00.46-1.7zm-1.31.24c0 .67-.2 1-.62 1s-.62-.33-.62-1v-3c0-.67.2-1 .62-1s.62.33.62 1zm6.14 2.09v-7.2h-1.3v5.53c-.29.4-.56.62-.83.62s-.28-.1-.3-.3a2.64 2.64 0 010-.51v-5.31h-1.33v5.7a3.62 3.62 0 00.12 1.08.8.8 0 00.85.53 2.1 2.1 0 001.49-.88v.78h1.3zM22.38 184a.92.92 0 00-.64.31v4.35a.92.92 0 00.64.31c.37 0 .56-.31.56-1v-3c0-.61-.2-.97-.56-.97zM27.17 184c-.43 0-.64.33-.64 1v.66h1.29V185c0-.64-.22-1-.65-1z"/><path class="cls-1" d="M30.32 180.4a2.7 2.7 0 00-2.32-2.1 72.73 72.73 0 00-8-.29 72.56 72.56 0 00-8 .29 2.7 2.7 0 00-2.32 2.1 34.08 34.08 0 000 10.11 2.7 2.7 0 002.31 2.1 72.81 72.81 0 008 .29 72.81 72.81 0 008-.29 2.71 2.71 0 002.32-2.1 22.65 22.65 0 00.38-5.05 23.17 23.17 0 00-.37-5.06zm-14.91 1.46h-1.55v8.23h-1.44v-8.22h-1.51v-1.35h4.5zm3.91 8.23H18v-.78a2.07 2.07 0 01-1.48.87.79.79 0 01-.84-.53 3.59 3.59 0 01-.11-1.06v-5.64h1.3v5.77a.27.27 0 00.24.3h.06c.26 0 .53-.2.82-.61V183h1.3zm4.92-2.14a5.86 5.86 0 01-.13 1.43 1 1 0 01-1 .8 1.76 1.76 0 01-1.33-.79v.7h-1.3v-9.57h1.3v3.12a1.74 1.74 0 011.33-.77 1 1 0 011 .81 5.7 5.7 0 01.13 1.43zm4.87-1.19h-2.59V188c0 .66.21 1 .66 1a.56.56 0 00.58-.51v-.87h1.31v1a1.89 1.89 0 01-.3.77 1.8 1.8 0 01-1.56.77 1.85 1.85 0 01-1.56-.73 2.75 2.75 0 01-.41-1.67v-2.5a2.77 2.77 0 01.4-1.68 1.85 1.85 0 011.55-.73 1.81 1.81 0 011.53.73 2.83 2.83 0 01.4 1.68v1.47zM31.5 217.93h-3.67v-3.62a.5.5 0 00-.5-.5h-1a.51.51 0 00-.51.5v3.62h-3.6a.51.51 0 00-.5.51v1a.51.51 0 00.5.5h3.63v3.63a.5.5 0 00.5.5h1a.5.5 0 00.5-.5v-3.63h3.65a.51.51 0 00.5-.5v-1a.51.51 0 00-.5-.51z"/><path class="cls-1" d="M19.33 221.11a4.24 4.24 0 01-1.46-1.58c0-.44 0-.65 1-1.43a4.75 4.75 0 002-3.72 5 5 0 00-1-3.18h.51a.5.5 0 00.3-.1l1.42-1a.5.5 0 00-.3-.87h-6.39a6.46 6.46 0 00-2.1.37 5.49 5.49 0 00-3.95 4.81 5.12 5.12 0 005.11 5.12h.12a2.71 2.71 0 00-.09.67 2.52 2.52 0 00.34 1.27h-.08c-2.84 0-5.4 1.39-6.38 3.49a3.8 3.8 0 00-.38 1.6 3.05 3.05 0 00.4 1.5 5.67 5.67 0 003.7 2.39 12 12 0 002.93.35 9.38 9.38 0 002.61-.35c2.53-.73 4.16-2.61 4.16-4.74a4.93 4.93 0 00-2.47-4.6zm-8.05 4.71c0-1.5 1.9-2.81 4.07-2.81h.06a4.86 4.86 0 011.37.21l.43.3c1 .69 1.66 1.13 1.86 1.86a2.35 2.35 0 01.06.54c0 1.86-1.39 2.81-4.14 2.81-2.07 0-3.71-1.27-3.71-2.9zm2-14.15a1.66 1.66 0 011.28-.59h.05c1.41 0 2.75 1.61 3 3.49a3.41 3.41 0 01-.63 2.61 1.66 1.66 0 01-1.3.59c-1.38 0-2.75-1.67-3-3.56a3.29 3.29 0 01.57-2.54z"/><path class="cls-1" d="M8.39 252.5h2.94a.85.85 0 01.79.58 31 31 0 002.15 5.06c1.28 2.11 2.11 2.9 2.65 2.82s.37-1.53.37-2.65.12-3-.41-3.9l-.83-1.2a.41.41 0 01.33-.66h4.72a.83.83 0 01.83.83v6s.21 1.08 1.37 0a20.59 20.59 0 003.44-5.3l.41-1a.82.82 0 01.75-.5H31a.83.83 0 01.79 1.12l-.33.87a31.26 31.26 0 01-2.28 3.81c-1.16 1.62-1.41 2-1.24 2.4s3.15 3.19 3.9 4.52c.21.37.37.7.54 1a.86.86 0 01-.78 1.2h-3.49a.8.8 0 01-.7-.41l-.33-.54a21.7 21.7 0 00-3.4-3.27c-1.33-.75-1.28.33-1.28.33v2.2a1.66 1.66 0 01-1.63 1.69h-.86s-4.56 0-8.2-5.43c-2.86-4.23-3.81-7-4.14-8.54a.85.85 0 01.65-1z" id="Layer_11" data-name="Layer 11"/><path class="cls-1" d="M20 288c-3.27 0-3.68 0-5 .07a8.83 8.83 0 00-2.92.56 6.15 6.15 0 00-3.52 3.52A8.83 8.83 0 008 295v5c0 3.23 0 3.68.07 5a8.83 8.83 0 00.56 2.92 6.15 6.15 0 003.52 3.52A8.83 8.83 0 0015 312c1.28.06 1.69.07 5 .07s3.68 0 5-.07a8.83 8.83 0 002.92-.56 6.15 6.15 0 003.52-3.52A8.83 8.83 0 0032 305c.06-1.28.07-1.69.07-5s0-3.68-.07-5a8.83 8.83 0 00-.56-2.92 6.15 6.15 0 00-3.52-3.52A8.83 8.83 0 0025 288zm0 2.17c3.21 0 3.59 0 4.86.07a6.66 6.66 0 012.23.41 4 4 0 012.28 2.28 6.66 6.66 0 01.41 2.23c.06 1.27.07 1.65.07 4.86s0 3.59-.07 4.86a6.66 6.66 0 01-.41 2.23 4 4 0 01-2.28 2.28 6.66 6.66 0 01-2.23.41c-1.27.06-1.65.07-4.86.07s-3.59 0-4.86-.07a6.66 6.66 0 01-2.23-.41 4 4 0 01-2.28-2.28 6.66 6.66 0 01-.41-2.23c-.06-1.27-.07-1.65-.07-4.86s0-3.59.07-4.86a6.66 6.66 0 01.41-2.23 4 4 0 012.28-2.28 6.66 6.66 0 012.23-.41c1.24-.1 1.62-.1 4.86-.1z"/><path class="cls-1" d="M20 304a4 4 0 114-4 4 4 0 01-4 4zm0-10.19a6.18 6.18 0 106.15 6.19 6.18 6.18 0 00-6.15-6.23zM27.84 293.57a1.44 1.44 0 11-1.44-1.44 1.44 1.44 0 011.44 1.44zM25 21.28l.6-3.93h-3.71v-2.56a2 2 0 012.22-2.12h1.71V9.33a20.91 20.91 0 00-3-.27c-3.11 0-5.14 1.88-5.14 5.29v3h-3.5v3.93h3.45v9.5a13.74 13.74 0 004.25 0v-9.5zM15.43 70a14.26 14.26 0 0014.36-14.17V55a10.27 10.27 0 002.52-2.61 10.08 10.08 0 01-2.9.79 5.07 5.07 0 002.22-2.79 10.12 10.12 0 01-3.2 1.23 5.05 5.05 0 00-8.6 4.6 14.34 14.34 0 01-10.4-5.27A5.07 5.07 0 0011 57.66 5 5 0 018.7 57v.06a5.06 5.06 0 004 5 5 5 0 01-2.28.09 5.06 5.06 0 004.72 3.51 10.13 10.13 0 01-6.25 2.14 10.27 10.27 0 01-1.2-.06A14.29 14.29 0 0015.43 70"/></svg>