<svg data-name="图层 1" xmlns="http://www.w3.org/2000/svg" viewBox="0 0 40 320"><path d="M18.34 104.05l-.56 2.18a17.59 17.59 0 01-1.13 3.56 18.14 18.14 0 01-2 3.16.39.39 0 01-.29.14c-.06 0-.14-.16-.15-.26a16 16 0 010-5.24c.19-1 .45-1.94.68-2.91q.65-2.7 1.27-5.4a.86.86 0 000-.44 5.58 5.58 0 01.13-4.43 2.73 2.73 0 011.91-1.59 2 2 0 012.5 1.92 6.19 6.19 0 01-.29 2.08c-.33 1.19-.72 2.37-1 3.58a2.34 2.34 0 002.74 2.85 3.92 3.92 0 002.77-1.86 9.7 9.7 0 001.53-4.46 9.08 9.08 0 000-3 5.08 5.08 0 00-3.64-4.08 7.71 7.71 0 00-6.75.84 6.8 6.8 0 00-3.09 5 5.15 5.15 0 00.27 2.84 6.53 6.53 0 00.69 1.13.86.86 0 01.18.8c-.11.38-.2.77-.3 1.16a.54.54 0 01-.84.4 4.56 4.56 0 01-2.54-2.88 8.51 8.51 0 011.2-7.9 10 10 0 016.59-4.11A11.68 11.68 0 0121.9 87a9 9 0 017.79 5.89 8.45 8.45 0 01.42 3.78 12.77 12.77 0 01-.92 4 8.09 8.09 0 01-4.38 4.65 6 6 0 01-4.74.13 4.42 4.42 0 01-1.73-1.4zM21.25 138a5.37 5.37 0 013-2 7 7 0 014.24.28 4.16 4.16 0 012.4 2.59 9.46 9.46 0 01.55 3.13v8.87c0 .42-.09.6-.56.59h-3.76c-.47 0-.56-.18-.55-.6v-7.58a6 6 0 00-.19-1.55 2 2 0 00-1.85-1.73c-1.45-.08-2.38.4-2.75 1.45a6.2 6.2 0 00-.33 2.1v7.18c0 .49-.14.66-.64.64h-3.65c-.45 0-.58-.17-.58-.59v-14c0-.51.15-.7.67-.68h3.42c.45 0 .61.16.58.59s0 .74 0 1.31zM13.72 143.77v7c0 .46-.14.63-.61.62h-3.7c-.44 0-.54-.18-.54-.57v-14c0-.54.18-.72.72-.71h3.59c.42 0 .55.13.54.55-.01 2.34 0 4.74 0 7.11zM8.54 131.34a2.8 2.8 0 012.7-2.75 2.75 2.75 0 012.9 2.59v.24a2.83 2.83 0 01-2.75 2.76 2.79 2.79 0 01-2.85-2.73zM17.75 167.09h-1.46l-1 3.79-1-3.79h-1.54c.3.89.62 1.8.93 2.69a22.9 22.9 0 01.88 3.06v3.91H16v-3.91zm3.88 7.34v-2.53a2.83 2.83 0 00-.4-1.7 1.77 1.77 0 00-1.53-.74 1.8 1.8 0 00-1.53.74 2.83 2.83 0 00-.4 1.7v2.53a2.85 2.85 0 00.4 1.7 2 2 0 002.82.18l.18-.18a2.91 2.91 0 00.46-1.7zm-1.31.24c0 .67-.2 1-.62 1s-.62-.33-.62-1v-3c0-.67.2-1 .62-1s.62.33.62 1zm6.14 2.09v-7.2h-1.3v5.51c-.29.4-.56.62-.83.62s-.28-.1-.3-.3a2.64 2.64 0 010-.51v-5.31H22.7v5.7a3.62 3.62 0 00.12 1.08.8.8 0 00.85.53 2.1 2.1 0 001.49-.88v.78h1.3zM22.37 184a.92.92 0 00-.64.31v4.35a.92.92 0 00.64.31c.37 0 .56-.31.56-1v-3c0-.61-.2-.97-.56-.97zM27.16 184c-.43 0-.64.33-.64 1v.66h1.29V185c0-.64-.22-1-.65-1z"/><path d="M30.31 180.4a2.7 2.7 0 00-2.31-2.1 72.73 72.73 0 00-8-.29 72.56 72.56 0 00-8 .29 2.7 2.7 0 00-2.32 2.1 34.08 34.08 0 000 10.11 2.7 2.7 0 002.31 2.1 72.81 72.81 0 008 .29 72.81 72.81 0 008-.29 2.71 2.71 0 002.32-2.1 22.65 22.65 0 00.38-5.05 23.17 23.17 0 00-.38-5.06zm-14.91 1.46h-1.55v8.22h-1.44v-8.22H10.9v-1.35h4.5zm3.91 8.22H18v-.78a2.07 2.07 0 01-1.48.87.79.79 0 01-.84-.53 3.59 3.59 0 01-.11-1.06v-5.64h1.3v5.77a.27.27 0 00.24.3h.06c.26 0 .53-.2.82-.61V183h1.3zm4.92-2.14a5.86 5.86 0 01-.13 1.43 1 1 0 01-1 .8 1.76 1.76 0 01-1.33-.79v.69h-1.3v-9.57h1.3v3.12a1.74 1.74 0 011.33-.77 1 1 0 011 .81 5.7 5.7 0 01.13 1.43zm4.87-1.19h-2.59V188c0 .66.21 1 .66 1a.56.56 0 00.58-.51v-.87h1.31v1a1.89 1.89 0 01-.3.77 1.8 1.8 0 01-1.56.77 1.85 1.85 0 01-1.56-.73 2.75 2.75 0 01-.41-1.67v-2.5a2.77 2.77 0 01.4-1.68 1.85 1.85 0 011.55-.73 1.81 1.81 0 011.53.73 2.83 2.83 0 01.4 1.68v1.49zM33.21 217.67H29v-4.15a.57.57 0 00-.57-.57h-1.14a.58.58 0 00-.58.57v4.15h-4.15a.58.58 0 00-.57.58v1.18a.58.58 0 00.57.57h4.16v4.16a.57.57 0 00.57.57h1.19a.57.57 0 00.57-.57V220h4.16a.58.58 0 00.57-.57v-1.18a.58.58 0 00-.57-.58z"/><path d="M19.24 221.32a4.86 4.86 0 01-1.68-1.81c0-.51 0-.75 1.18-1.64A5.45 5.45 0 0021 213.6a5.69 5.69 0 00-1.2-3.6h.59a.57.57 0 00.34-.11l1.63-1.18a.57.57 0 00-.34-1h-7.28a7.41 7.41 0 00-2.41.42c-2.66.92-4.53 3.19-4.53 5.52a5.87 5.87 0 005.86 5.88h.14a3.11 3.11 0 00-.1.77 2.89 2.89 0 00.39 1.46H14c-3.26 0-6.2 1.6-7.32 4a4.36 4.36 0 00-.44 1.86 3.5 3.5 0 00.46 1.72 6.51 6.51 0 004.22 2.66 13.73 13.73 0 003.36.4 10.76 10.76 0 003-.4c2.9-.84 4.77-3 4.77-5.44a5.66 5.66 0 00-2.81-5.24zM10 226.73c0-1.72 2.18-3.23 4.67-3.23h.07a5.58 5.58 0 011.57.24l.49.34c1.15.79 1.91 1.3 2.13 2.14a2.7 2.7 0 01.07.62c0 2.14-1.6 3.23-4.75 3.23-2.37-.01-4.25-1.47-4.25-3.34zm2.27-16.24a1.91 1.91 0 011.47-.68h.06c1.62 0 3.16 1.85 3.45 4a3.91 3.91 0 01-.72 3 1.91 1.91 0 01-1.49.68c-1.58 0-3.16-1.92-3.45-4.08a3.78 3.78 0 01.68-2.93z"/><path d="M8.4 252.5h2.94a.85.85 0 01.79.58 31 31 0 002.15 5.06c1.28 2.11 2.11 2.9 2.65 2.82s.37-1.53.37-2.65.12-3-.41-3.9l-.83-1.2a.41.41 0 01.33-.66h4.72a.83.83 0 01.83.83v6s.21 1.08 1.37 0a20.59 20.59 0 003.44-5.3l.41-1a.82.82 0 01.75-.5H31a.83.83 0 01.79 1.12l-.33.87a31.26 31.26 0 01-2.28 3.81c-1.16 1.62-1.41 2-1.24 2.4s3.15 3.19 3.9 4.52c.21.37.37.7.54 1a.86.86 0 01-.75 1.24h-3.51a.8.8 0 01-.7-.41l-.33-.54a21.7 21.7 0 00-3.4-3.27c-1.33-.75-1.28.33-1.28.33v2.2a1.66 1.66 0 01-1.66 1.66h-.83s-4.56 0-8.2-5.43c-2.86-4.23-3.81-7-4.14-8.54a.85.85 0 01.64-1z" data-name="Layer 11"/><path d="M25 21.27l.6-3.93h-3.71v-2.55a2 2 0 012.22-2.12h1.71V9.32a20.91 20.91 0 00-3-.27c-3.11 0-5.14 1.88-5.14 5.29v3h-3.5v3.93h3.45v9.5a13.74 13.74 0 004.25 0v-9.5zM15.44 70A14.26 14.26 0 0029.8 55.84V55a10.27 10.27 0 002.52-2.61 10.08 10.08 0 01-2.9.79 5.07 5.07 0 002.22-2.79 10.12 10.12 0 01-3.2 1.23 5.05 5.05 0 00-8.6 4.6 14.34 14.34 0 01-10.4-5.27A5.07 5.07 0 0011 57.66 5 5 0 018.68 57v.06a5.06 5.06 0 004 5 5 5 0 01-2.28.09 5.06 5.06 0 004.72 3.51A10.13 10.13 0 018.9 67.8a10.27 10.27 0 01-1.2-.07A14.29 14.29 0 0015.44 70M26.46 288h-13A5.49 5.49 0 008 293.56v13a5.48 5.48 0 005.52 5.44h13a5.48 5.48 0 005.48-5.48v-13a5.56 5.56 0 00-5.54-5.52zm2.22 15.34a5.35 5.35 0 01-5.35 5.35h-6.68a5.35 5.35 0 01-5.35-5.35v-6.67a5.36 5.36 0 015.36-5.36h6.68a5.35 5.35 0 015.34 5.36z"/><path d="M20.28 297.28a2.75 2.75 0 00-.05 5.5h.05a2.75 2.75 0 000-5.5z"/><path d="M22.7 293h-5.4a4.33 4.33 0 00-4.3 4.3v5.4a4.33 4.33 0 004.3 4.3h5.4a4.33 4.33 0 004.3-4.3v-5.4a4.33 4.33 0 00-4.3-4.3zm-2.47 11.61a4.58 4.58 0 114.58-4.61 4.58 4.58 0 01-4.58 4.61zm5.43-9.23a1.16 1.16 0 11-1.16-1.17 1.16 1.16 0 011.16 1.17z"/></svg>